<mxfile host="app.diagrams.net" modified="2022-09-18T09:14:43.209Z" agent="5.0 (Windows)" etag="qfB07mSm_lzn7YrINOAE" version="20.3.2" type="github">
  <diagram id="C5RBs43oDa-KdzZeNtuy" name="Page-1">
    <mxGraphModel dx="1422" dy="803" grid="1" gridSize="10" guides="1" tooltips="1" connect="1" arrows="1" fold="1" page="1" pageScale="1" pageWidth="827" pageHeight="1169" math="0" shadow="0">
      <root>
        <mxCell id="WIyWlLk6GJQsqaUBKTNV-0" />
        <mxCell id="WIyWlLk6GJQsqaUBKTNV-1" parent="WIyWlLk6GJQsqaUBKTNV-0" />
        <mxCell id="0jg4HZSSIyvqCbk5FdZA-10" style="edgeStyle=orthogonalEdgeStyle;rounded=0;orthogonalLoop=1;jettySize=auto;html=1;exitX=1;exitY=0.25;exitDx=0;exitDy=0;entryX=0;entryY=0;entryDx=0;entryDy=27.5;entryPerimeter=0;" edge="1" parent="WIyWlLk6GJQsqaUBKTNV-1" source="0jg4HZSSIyvqCbk5FdZA-0" target="0jg4HZSSIyvqCbk5FdZA-8">
          <mxGeometry relative="1" as="geometry" />
        </mxCell>
        <mxCell id="0jg4HZSSIyvqCbk5FdZA-11" style="edgeStyle=orthogonalEdgeStyle;rounded=0;orthogonalLoop=1;jettySize=auto;html=1;exitX=1;exitY=0.75;exitDx=0;exitDy=0;entryX=0;entryY=0;entryDx=0;entryDy=52.5;entryPerimeter=0;" edge="1" parent="WIyWlLk6GJQsqaUBKTNV-1" source="0jg4HZSSIyvqCbk5FdZA-0" target="0jg4HZSSIyvqCbk5FdZA-9">
          <mxGeometry relative="1" as="geometry" />
        </mxCell>
        <mxCell id="0jg4HZSSIyvqCbk5FdZA-0" value="&lt;div&gt;class Character()&lt;/div&gt;&lt;div&gt;&lt;br&gt;&lt;/div&gt;&lt;div&gt;random_switcher()&lt;/div&gt;&lt;div&gt;mid_randomizer()&lt;/div&gt;&lt;div&gt;complete_randomizer()&lt;/div&gt;&lt;div&gt;keyboard_replacer()&lt;/div&gt;&lt;div&gt;remover()&lt;/div&gt;&lt;div&gt;inserter()&lt;/div&gt;&lt;div&gt;misspeller()&lt;br&gt;&lt;/div&gt;&lt;div&gt;&lt;br&gt;&lt;/div&gt;" style="rounded=0;whiteSpace=wrap;html=1;" vertex="1" parent="WIyWlLk6GJQsqaUBKTNV-1">
          <mxGeometry x="20" y="130" width="150" height="160" as="geometry" />
        </mxCell>
        <mxCell id="0jg4HZSSIyvqCbk5FdZA-1" value="&lt;div&gt;Character&lt;/div&gt;" style="rounded=0;whiteSpace=wrap;html=1;" vertex="1" parent="WIyWlLk6GJQsqaUBKTNV-1">
          <mxGeometry x="120" y="30" width="120" height="60" as="geometry" />
        </mxCell>
        <mxCell id="0jg4HZSSIyvqCbk5FdZA-8" value="&lt;div&gt;misspellings&lt;/div&gt;&lt;div&gt;&lt;br&gt;&lt;/div&gt;" style="shape=cylinder3;whiteSpace=wrap;html=1;boundedLbl=1;backgroundOutline=1;size=15;" vertex="1" parent="WIyWlLk6GJQsqaUBKTNV-1">
          <mxGeometry x="250" y="120" width="110" height="80" as="geometry" />
        </mxCell>
        <mxCell id="0jg4HZSSIyvqCbk5FdZA-9" value="keyboard_replacements" style="shape=cylinder3;whiteSpace=wrap;html=1;boundedLbl=1;backgroundOutline=1;size=15;" vertex="1" parent="WIyWlLk6GJQsqaUBKTNV-1">
          <mxGeometry x="232.5" y="220" width="145" height="80" as="geometry" />
        </mxCell>
        <mxCell id="0jg4HZSSIyvqCbk5FdZA-14" style="edgeStyle=orthogonalEdgeStyle;rounded=0;orthogonalLoop=1;jettySize=auto;html=1;exitX=0.5;exitY=0;exitDx=0;exitDy=0;" edge="1" parent="WIyWlLk6GJQsqaUBKTNV-1" source="0jg4HZSSIyvqCbk5FdZA-13" target="0jg4HZSSIyvqCbk5FdZA-0">
          <mxGeometry relative="1" as="geometry" />
        </mxCell>
        <mxCell id="0jg4HZSSIyvqCbk5FdZA-13" value="replacement_engine()" style="rounded=0;whiteSpace=wrap;html=1;" vertex="1" parent="WIyWlLk6GJQsqaUBKTNV-1">
          <mxGeometry x="120" y="340" width="140" height="60" as="geometry" />
        </mxCell>
      </root>
    </mxGraphModel>
  </diagram>
</mxfile>
